<svg xmlns="http://www.w3.org/2000/svg" viewBox="0 0 512 512" width="512" height="512">
  <circle cx="256" cy="256" r="256" fill="#1e293b"/>
  <circle cx="256" cy="200" r="90" fill="#94a3b8"/>
  <ellipse cx="256" cy="440" rx="140" ry="110" fill="#94a3b8"/>
  <circle cx="256" cy="200" r="80" fill="#cbd5e1"/>
  <rect x="230" y="270" width="52" height="50" rx="4" fill="#cbd5e1"/>
  <ellipse cx="256" cy="430" rx="130" ry="100" fill="#cbd5e1"/>
  <rect x="216" y="188" width="24" height="8" rx="4" fill="#475569"/>
  <rect x="272" y="188" width="24" height="8" rx="4" fill="#475569"/>
  <ellipse cx="256" cy="220" rx="8" ry="6" fill="#94a3b8"/>
  <path d="M238 240 Q256 254 274 240" stroke="#475569" stroke-width="3" fill="none" stroke-linecap="round"/>
  <path d="M176 170 Q180 110 256 100 Q332 110 336 170 Q336 145 310 130 Q290 125 256 122 Q222 125 202 130 Q176 145 176 170Z" fill="#475569"/>
</svg>
